<svg xmlns="http://www.w3.org/2000/svg" width="48" height="48" fill="none"><g clip-path="url(#a)"><path fill="#F44336" d="M14 24a10 10 0 0 1 10-10 9.9 9.9 0 0 1 4.29 1h17.95A24 24 0 0 0 24 0C16.3 0 9.46 3.65 5.07 9.29l9.02 15.55c-.03-.28-.09-.55-.09-.84z"/><path fill="#00B060" d="M24 34a9.97 9.97 0 0 1-9.91-9.16L5.07 9.3A23.87 23.87 0 0 0 0 24a23.99 23.99 0 0 0 20.74 23.75l8.9-15.5A9.95 9.95 0 0 1 24 34z"/><path fill="#FFC107" d="M28.29 15a9.97 9.97 0 0 1 1.35 17.25l-8.9 15.5A24.08 24.08 0 0 0 24 48a24 24 0 0 0 22.24-33H28.3z"/><path fill="#2196F3" d="M24 32a8 8 0 1 0 0-16 8 8 0 0 0 0 16z"/><path fill="url(#b)" d="M32.91 19.52 46.24 15H28.29c2 .95 3.62 2.56 4.62 4.52z"/><path fill="url(#c)" d="M15.67 18.52 5.09 9.24l8.97 15.55c-.17-2.21.4-4.42 1.6-6.27z"/><path fill="url(#d)" d="m23.42 33.96-2.75 13.8 8.98-15.55a10.08 10.08 0 0 1-6.23 1.75z"/><path fill="url(#e)" d="M24 48a24 24 0 1 0 0-48 24 24 0 0 0 0 48z"/></g><defs><linearGradient id="b" x1="32.77" x2="41.75" y1="10.51" y2="19.49" gradientUnits="userSpaceOnUse"><stop stop-opacity=".1"/><stop offset="1" stop-opacity="0"/></linearGradient><linearGradient id="c" x1="3.77" x2="16.03" y1="10.56" y2="22.82" gradientUnits="userSpaceOnUse"><stop stop-opacity=".1"/><stop offset="1" stop-opacity="0"/></linearGradient><linearGradient id="d" x1="21.28" x2="26.8" y1="36.1" y2="41.63" gradientUnits="userSpaceOnUse"><stop stop-opacity=".1"/><stop offset="1" stop-opacity="0"/></linearGradient><linearGradient id="e" x1="2.24" x2="45.76" y1="13.86" y2="34.15" gradientUnits="userSpaceOnUse"><stop stop-color="#fff" stop-opacity=".2"/><stop offset="1" stop-color="#fff" stop-opacity="0"/></linearGradient><clipPath id="a"><path fill="#fff" d="M0 0h48v48H0z"/></clipPath></defs></svg>
