<svg xmlns="http://www.w3.org/2000/svg" width="49" height="49" fill="none"><path fill="url(#a)" d="M43.33 35.73c-.64.33-1.3.63-1.98.88a19.1 19.1 0 0 1-6.73 1.21c-8.87 0-16.6-6.1-16.6-13.93a5.9 5.9 0 0 1 3.08-5.12C13.07 19.1 11 27.47 11 32.37c0 13.85 12.77 15.25 15.52 15.25a20 20 0 0 0 5.06-.85l.25-.09a24.06 24.06 0 0 0 12.48-9.9.75.75 0 0 0-1-1.05z"/><path fill="url(#b)" d="M43.33 35.73c-.64.33-1.3.63-1.98.88a19.1 19.1 0 0 1-6.73 1.21c-8.87 0-16.6-6.1-16.6-13.93a5.9 5.9 0 0 1 3.08-5.12C13.07 19.1 11 27.47 11 32.37c0 13.85 12.77 15.25 15.52 15.25a20 20 0 0 0 5.06-.85l.25-.09a24.06 24.06 0 0 0 12.48-9.9.75.75 0 0 0-1-1.05z" opacity=".35"/><path fill="url(#c)" d="M19.82 45.27a14.85 14.85 0 0 1-4.26-4 15.13 15.13 0 0 1 5.54-22.5c.58-.28 1.58-.78 2.91-.75a6.07 6.07 0 0 1 4.82 2.43 5.98 5.98 0 0 1 1.19 3.5c0-.04 4.59-14.92-15-14.92-8.23 0-15 7.8-15 14.66a24.4 24.4 0 0 0 2.27 10.5 24 24 0 0 0 29.32 12.58 14.17 14.17 0 0 1-11.77-1.5h-.02z"/><path fill="url(#d)" d="M19.82 45.27a14.85 14.85 0 0 1-4.26-4 15.13 15.13 0 0 1 5.54-22.5c.58-.28 1.58-.78 2.91-.75a6.07 6.07 0 0 1 4.82 2.43 5.98 5.98 0 0 1 1.19 3.5c0-.04 4.59-14.92-15-14.92-8.23 0-15 7.8-15 14.66a24.4 24.4 0 0 0 2.27 10.5 24 24 0 0 0 29.32 12.58 14.17 14.17 0 0 1-11.77-1.5h-.02z" opacity=".41"/><path fill="url(#e)" d="M28.56 27.91c-.15.2-.62.47-.62 1.06 0 .5.32.96.89 1.36 2.7 1.87 7.78 1.63 7.8 1.63a11.17 11.17 0 0 0 5.67-1.57 11.51 11.51 0 0 0 5.7-9.91c.05-4.2-1.5-7-2.12-8.24C41.9 4.47 33.33 0 24 0A24 24 0 0 0 0 23.66c.09-6.85 6.9-12.38 15-12.38.66 0 4.4.06 7.88 1.89a13.6 13.6 0 0 1 5.78 5.47c1.16 2 1.36 4.53 1.36 5.54 0 1-.5 2.5-1.46 3.73z"/><path fill="url(#f)" d="M28.56 27.91c-.15.2-.62.47-.62 1.06 0 .5.32.96.89 1.36 2.7 1.87 7.78 1.63 7.8 1.63a11.17 11.17 0 0 0 5.67-1.57 11.51 11.51 0 0 0 5.7-9.91c.05-4.2-1.5-7-2.12-8.24C41.9 4.47 33.33 0 24 0A24 24 0 0 0 0 23.66c.09-6.85 6.9-12.38 15-12.38.66 0 4.4.06 7.88 1.89a13.6 13.6 0 0 1 5.78 5.47c1.16 2 1.36 4.53 1.36 5.54 0 1-.5 2.5-1.46 3.73z"/><defs><radialGradient id="b" cx="0" cy="0" r="1" gradientTransform="matrix(17.8837 0 0 16.9896 29.48 33.46)" gradientUnits="userSpaceOnUse"><stop offset=".72" stop-opacity="0"/><stop offset=".95" stop-opacity=".53"/><stop offset="1"/></radialGradient><radialGradient id="d" cx="0" cy="0" r="1" gradientTransform="matrix(4.0286 -26.58894 21.48113 3.2547 13.24 37.31)" gradientUnits="userSpaceOnUse"><stop offset=".76" stop-opacity="0"/><stop offset=".95" stop-opacity=".5"/><stop offset="1"/></radialGradient><radialGradient id="e" cx="0" cy="0" r="1" gradientTransform="matrix(-1.51848 37.95564 -80.83753 -3.23405 4.85 8.88)" gradientUnits="userSpaceOnUse"><stop stop-color="#35C1F1"/><stop offset=".11" stop-color="#34C1ED"/><stop offset=".23" stop-color="#2FC2DF"/><stop offset=".31" stop-color="#2BC3D2"/><stop offset=".67" stop-color="#36C752"/></radialGradient><radialGradient id="f" cx="0" cy="0" r="1" gradientTransform="matrix(5.11036 17.52125 -14.24822 4.15573 45.01 14.51)" gradientUnits="userSpaceOnUse"><stop stop-color="#66EB6E"/><stop offset="1" stop-color="#66EB6E" stop-opacity="0"/></radialGradient><linearGradient id="a" x1="11.01" x2="44.45" y1="33.2" y2="33.2" gradientUnits="userSpaceOnUse"><stop stop-color="#0C59A4"/><stop offset="1" stop-color="#114A8B"/></linearGradient><linearGradient id="c" x1="28.64" x2="7.75" y1="18.69" y2="41.44" gradientUnits="userSpaceOnUse"><stop stop-color="#1B9DE2"/><stop offset=".16" stop-color="#1595DF"/><stop offset=".67" stop-color="#0680D7"/><stop offset="1" stop-color="#0078D4"/></linearGradient></defs></svg>
