<svg xmlns="http://www.w3.org/2000/svg" width="48" height="49" fill="none"><path fill="url(#a)" d="M24 48a24 24 0 1 0 0-48 24 24 0 0 0 0 48z"/><path fill="url(#b)" d="M24 47.5A23.7 23.7 0 1 0 24 0a23.7 23.7 0 0 0 0 47.5z"/><path fill="#000" d="m41.3 13.8-1-.2.8-1.2-1.5 1c-.3-.6-1-.4-1.4-.7l.3-.6c0-.2.6-.7.5-.9v-.6l.2-.3-1-.1-.5-.1-.7-.3-.1 1.2-.3.3c-.6-.5-.8-1.6-1.5-1.3-.8.2-1-.4-2 0-.9.4-.7.1-1 .6-.4.4-.3 1-.3 1.5 0 .4-.4 1-.3 1.4h-.2c-.4-.2-.2-.7-.7-.8-.3-.1-.3.3-.2.9a1.5 1.5 0 0 1-.7.3c-.5 0-.5-.4-1-.3-.6 0 .4 1.1.9 1.5.5.3.6 1.3 1.3 1h.7c.4.3.5.7 1.3.8l.6.1.5 1 .5-1.3.2-.2.5 2c-1.1 0-1 1.3-1.8 1.9l-.8-.8c-.4-.3-.8-1.3-1.2-1.3l-1-.5-.4-.5-.7 1.6-.5.9-.8.9 2 .8.2.6c-1 .7-3 .5-3 1.8s-1.1 1.4-1 3c.2 1.8-.1 1.3.4 2.1s1.7 1 2.3 1.4c.6.3 1.4 1 2.1 1.2l-.2.2c-.5.6-1 0-1.6.7-.3.5.4.7 1.3.8 0 0 .3.6.2 1.4-.2.8-1 .6-1.1 1.5-.2.8 2-.1 3-.8.8-.6 2.3-.3 2.4-1.5 0-.5.2-.8.4-1.1.6-.5 1.2-.5 1.8-1.6l.6-1h.1l1.8-.3-2-1.5-.6-1.1-.4-1.3c.2 0 .4-.2.7-.6.6-1 1.2-.8 2-2.2.7-1.5.6-1 .8-1.8.2-.8-.2-1.4-.3-1.8-.2-.5 0-1.6-.4-1.8l-.6-.8v-.3c.5 0 .7-.4 1-.5.2-.2.8-.3.9-.5l.3-.5h.5v-.7l.2-.6-.5-.1zM35 16l.6-.5c.1.2.2.3.5.3l.5.2-.6 1.2-1-1.2z" opacity=".1"/><path fill="url(#c)" d="M48 24A24 24 0 1 1 3 12.2c-1.2-1.7-1.6-5.2 1.2-8 0 1 .6 3 1.4 4.4.6 1 1.2 1.9 1.7 1.8 1-.3 4.7-.3 5.2 0 .9-1.1 3-4.2 6.3-4.2-1.9 1.9-7.2 8.4 2 8.4H23l-6.3 4.1s.7 1.4 0 2.1c-.8-.8-4.2.9-4.2 3.2 0 2.2 2.4 5.2 7.3 5.2s3.7-2.1 6.3-2.1 3.1 2 3.1 2c-3.6 0-6.2 4.2-10.4 4.2a9 9 0 0 0 6.2 2.1 12.5 12.5 0 0 0 10.1-20 12.6 12.6 0 0 1 5 9c.4-1.4.6-3 .6-4.6 0-6.3-2.5-14.7-7.1-17.8A24 24 0 0 1 48 24z"/><path fill="#000" d="M12.5 24c0-2.3 3.4-4 4.2-3.2.6-.6.2-1.6 0-2 0 .3 0 .5-.2.7-.9-.9-4.3.8-4.3 3.2 0 .5.1 1.1.4 1.7V24z" opacity=".1"/><path fill="url(#d)" d="M40.7 19.8c0 .9-.2 3.4-.6 4.6l.1.8c.4-1.5 1-5.2 1-6.8a30 30 0 0 0-3.7-14.2 24 24 0 0 0-4-2.2c4.7 3.1 7.2 11.5 7.2 17.8z"/><path fill="url(#e)" d="M35.1 15.5a12.5 12.5 0 0 1 2 11 12.8 12.8 0 0 0 .3-8.8 12.6 12.6 0 0 0-2.3-2.2z"/><path fill="#000" d="M29.2 29.2s-.1-.5-.5-1c-3.4.5-7 4.3-11.1 4.3l1.2.9c3.6.1 7.1-4.2 10.4-4.2zM4.4 5.5a6 6 0 0 1-.2-1.4l-.2.3.4 1.1zm-2 5.2v-.1l-.1-.2v.3zM24 47.5a24.9 24.9 0 0 1-19.1-9 24.1 24.1 0 0 0 38.2 0c-4.5 5.5-11.4 9-19.1 9zm-3.4-33-4.1 2.8s.3.7.3 1.4l6.2-4.1h-2.4zm-5-2.1c-.3-2.5 2.2-5.2 3.2-6.2-.8 0-1.4.2-2 .4-1.1 1.6-2 4.5-1.2 5.8z" opacity=".1"/><path fill="url(#f)" d="m33.6 2 .2.1A23.6 23.6 0 0 0 24 0C16.6 0 10 3.4 5.7 8.7l-.1-.1C4.8 7 4.2 5.2 4.2 4c-2.8 3-2.4 6.4-1.1 8.1A24 24 0 0 0 0 24 24 24 0 1 0 33.6 2z"/><defs><linearGradient id="b" x1="24" x2="24" y1="0" y2="47.5" gradientUnits="userSpaceOnUse"><stop stop-opacity="0"/><stop offset="1" stop-opacity=".4"/></linearGradient><linearGradient id="d" x1="29.7" x2="44.1" y1="10.2" y2="16.9" gradientUnits="userSpaceOnUse"><stop stop-color="#fff" stop-opacity=".5"/><stop offset="1" stop-color="#fff" stop-opacity=".2"/></linearGradient><linearGradient id="e" x1="33.2" x2="39" y1="19.6" y2="22.3" gradientUnits="userSpaceOnUse"><stop stop-color="#fff" stop-opacity=".5"/><stop offset="1" stop-color="#fff" stop-opacity=".2"/></linearGradient><linearGradient id="f" x1="-.3" x2="45.7" y1="12.7" y2="34.1" gradientUnits="userSpaceOnUse"><stop stop-color="#fff" stop-opacity=".2"/><stop offset="1" stop-color="#fff" stop-opacity="0"/></linearGradient><radialGradient id="a" cx="0" cy="0" r="1" gradientTransform="translate(12.9 -1.1) scale(42.1673)" gradientUnits="userSpaceOnUse"><stop stop-color="#15BEF0"/><stop offset=".3" stop-color="#0D91CE"/><stop offset=".5" stop-color="#066DB1"/><stop offset=".7" stop-color="#0257A0"/><stop offset=".9" stop-color="#004E9A"/></radialGradient><radialGradient id="c" cx="0" cy="0" r="1" gradientTransform="rotate(141.8 15.7 11.6) scale(33.2991 34.0389)" gradientUnits="userSpaceOnUse"><stop stop-color="#FFF203"/><stop offset=".3" stop-color="#FBC40D"/><stop offset=".8" stop-color="#F47E1C"/><stop offset="1" stop-color="#F26322"/></radialGradient></defs></svg>
