<svg xmlns="http://www.w3.org/2000/svg" width="48" height="48" fill="none" viewBox="0 0 48 48"><path fill="#EE3124" d="M24 0C10.745 0 0 10.745 0 24s10.745 24 24 24 24-10.745 24-24S37.255 0 24 0zm1 41c-7.18 0-13-7.611-13-17S17.82 7 25 7s13 7.611 13 17-5.82 17-13 17z"/><path fill="url(#paint0_linear)" d="M24 0C10.745 0 0 10.745 0 24s10.745 24 24 24 24-10.745 24-24S37.255 0 24 0zm1 41c-7.18 0-13-7.611-13-17S17.82 7 25 7s13 7.611 13 17-5.82 17-13 17z"/><path fill="#EE3124" d="M32 44c-11.046 0-20-8.954-20-20S20.954 4 32 4c2.47 0 4.824.469 7.008 1.287A23.885 23.885 0 0024 0C10.745 0 0 10.745 0 24s10.745 24 24 24a23.883 23.883 0 0015.008-5.287A19.91 19.91 0 0132 44z"/><path fill="url(#paint1_linear)" d="M32 44c-11.046 0-20-8.954-20-20S20.954 4 32 4c2.47 0 4.824.469 7.008 1.287A23.885 23.885 0 0024 0C10.745 0 0 10.745 0 24s10.745 24 24 24a23.883 23.883 0 0015.008-5.287A19.91 19.91 0 0132 44z"/><path fill="url(#paint2_linear)" d="M24 0C10.745 0 0 10.745 0 24s10.745 24 24 24 24-10.745 24-24S37.255 0 24 0zm1 41c-7.18 0-13-7.611-13-17S17.82 7 25 7s13 7.611 13 17-5.82 17-13 17z"/><defs><linearGradient id="paint0_linear" x1="28.721" x2="20.137" y1="41.278" y2="9.861" gradientUnits="userSpaceOnUse"><stop stop-color="#F2F2F2" stop-opacity=".1"/><stop offset=".341" stop-color="#969696" stop-opacity=".168"/><stop offset=".663" stop-color="#454545" stop-opacity=".233"/><stop offset=".889" stop-color="#131313" stop-opacity=".278"/><stop offset="1" stop-opacity=".3"/></linearGradient><linearGradient id="paint1_linear" x1="17.435" x2="25.101" y1="6.712" y2="41.045" gradientUnits="userSpaceOnUse"><stop stop-color="#fff" stop-opacity=".1"/><stop offset="1" stop-opacity=".3"/></linearGradient><linearGradient id="paint2_linear" x1="2.243" x2="45.757" y1="13.855" y2="34.145" gradientUnits="userSpaceOnUse"><stop stop-color="#fff" stop-opacity=".2"/><stop offset="1" stop-color="#fff" stop-opacity="0"/></linearGradient></defs></svg>