<svg id="Layer_1" data-name="Layer 1" xmlns="http://www.w3.org/2000/svg" viewBox="0 0 110 110"><defs><style>.cls-1{fill:#fff;stroke-linecap:round;stroke-linejoin:round}.cls-1,.cls-4{stroke:#010101}.cls-2{fill:#010101}.cls-4{fill:none;stroke-miterlimit:10}</style></defs><path class="cls-1" d="M86.188 58.032a32.627 32.627 0 0 1 3.866 15.038h-65.55a32.782 32.782 0 0 1 61.684-15.038"/><rect class="cls-1" x="76.053" y="58.182" width="21.935" height="14.888" rx="6.883"/><circle class="cls-1" cx="90.544" cy="65.626" r="7.444"/><rect class="cls-2" x="91.699" y="62.17" width="2.838" height="6.749" rx="1.312"/><rect class="cls-2" x="87.02" y="62.17" width="2.838" height="6.749" rx="1.312"/><path class="cls-1" d="M84.711 52.583a8.887 8.887 0 0 1-12.662 0 8.887 8.887 0 0 1 12.662 0Z"/><circle class="cls-2" cx="78.699" cy="52.583" r="1.223"/><rect class="cls-1" x="55.73" y="67.305" width="21.018" height="10.188" rx="5.094" transform="rotate(64.767 66.239 72.4)"/><circle class="cls-2" cx="63.922" cy="67.338" r="1.223"/><circle class="cls-2" cx="68.634" cy="77.48" r="1.223"/><path class="cls-2" d="m70.739 81.568-.883 10.591 9.613-4.531-8.73-6.06z"/><rect class="cls-1" x="28.721" y="67.305" width="21.018" height="10.188" rx="5.094" transform="rotate(115.233 39.23 72.4)"/><circle class="cls-2" cx="41.548" cy="67.338" r="1.223"/><circle class="cls-2" cx="36.836" cy="77.48" r="1.223"/><path class="cls-2" d="m34.73 81.568.883 10.591L26 87.628l8.73-6.06z"/><rect class="cls-2" x="49.614" y="44.952" width="15.33" height="2.761" rx="1.381"/><circle class="cls-1" cx="57.279" cy="29.163" r="6.136"/><path d="M56.002 30.434a2.654 2.654 0 0 0 1.596.583c.67 0 1.03-.3 1.03-.738 0-1.064-2.72-.875-2.72-2.369 0-.806.703-1.313 1.69-1.313a2.087 2.087 0 0 1 1.587.661l-.377.42a1.794 1.794 0 0 0-1.262-.488c-.574 0-.935.274-.935.703 0 .944 2.72.764 2.72 2.334 0 .824-.738 1.382-1.82 1.382a3.013 3.013 0 0 1-1.844-.678Zm1.304-4.952h.515v1.382h-.515Zm.515 5.879v1.484h-.515v-1.484Z" fill="#231f20"/><path class="cls-4" d="M58.664 19.298v-8.744M54.642 21.062v-5.177M24.504 73.07s-5.282 1.045-7.046-.67-.69-3.507.46-3.839 2.968.972 2.596 3.196-4.744 5.54-8.502 1.313"/></svg>