<svg xmlns="http://www.w3.org/2000/svg" width="48" height="48" fill="none" viewBox="0 0 48 48"><path fill="url(#paint0_linear)" fill-rule="evenodd" d="M48 24c0 13.255-10.745 24-24 24S0 37.255 0 24 10.745 0 24 0s24 10.745 24 24z" clip-rule="evenodd"/><path fill="#fff" fill-rule="evenodd" d="M46.837 24c0 12.613-10.224 22.837-22.837 22.837S1.162 36.614 1.162 24 11.387 1.162 24 1.162c12.613 0 22.837 10.225 22.837 22.838z" clip-rule="evenodd"/><path fill="#EC1C24" fill-rule="evenodd" d="M39.45 14.1L26.606 26.663V42.28c0 .282-1.219.507-2.606.525-1.331-.018-2.606-.243-2.606-.525V26.663L8.55 14.1c-.206-.206.45-1.181 1.462-2.194 1.013-1.012 2.007-1.668 2.194-1.462l11.775 11.493 11.775-11.493c.206-.207 1.181.45 2.194 1.462 1.012 1.013 1.687 1.988 1.5 2.194z" clip-rule="evenodd"/><defs><linearGradient id="paint0_linear" x1="24" x2="24" y1="0" y2="48" gradientUnits="userSpaceOnUse"><stop offset="0" stop-color="#F5F5F6"/><stop offset="1" stop-color="#EDEDEE"/></linearGradient></defs></svg>